<?xml version="1.0" standalone="no"?>
<!DOCTYPE svg PUBLIC "-//W3C//DTD SVG 20010904//EN"
 "http://www.w3.org/TR/2001/REC-SVG-20010904/DTD/svg10.dtd">
<svg version="1.0" xmlns="http://www.w3.org/2000/svg"
 width="336.000000pt" height="336.000000pt" viewBox="0 0 336.000000 336.000000"
 preserveAspectRatio="xMidYMid meet">
<metadata>
Created by potrace 1.11, written by Peter Selinger 2001-2013
</metadata>
<g transform="translate(0.000000,336.000000) scale(0.100000,-0.100000)"
fill="#000000" stroke="none">
<path d="M380 3344 c-146 -39 -272 -143 -332 -274 -50 -107 -48 -69 -45 -1407
1 -686 6 -1261 10 -1276 50 -186 185 -322 369 -371 75 -21 2503 -23 2588 -2
135 31 276 140 332 256 61 124 58 59 58 1411 0 1062 -2 1244 -15 1293 -44 170
-151 289 -320 357 l-60 24 -1265 2 c-1086 1 -1273 0 -1320 -13z"/>
</g>
</svg>
